<svg xmlns="http://www.w3.org/2000/svg" viewBox="379 1126 175 175"><defs><style>.a,.d{fill:none;}.a{stroke:#c1a050;stroke-width:7px;}.b{fill:#be9b47;}.c{stroke:none;}</style></defs><g class="a" transform="translate(379 1126)"><circle class="c" cx="87.5" cy="87.5" r="87.5"/><circle class="d" cx="87.5" cy="87.5" r="84"/></g><g transform="translate(422 1168.997)"><g transform="translate(0 0.003)"><g transform="translate(0 0)"><path class="b" d="M83.662,14.366V8.758A8.765,8.765,0,0,0,74.907,0H51.559A8.77,8.77,0,0,0,43.3,5.84H28.212a8.755,8.755,0,0,0,0,17.511H51.559a8.77,8.77,0,0,0,8.255-5.837h5.84L60.74,48.644H52.532V34.052a2.921,2.921,0,0,0-4.67-2.335L29.185,45.725V34.052a2.921,2.921,0,0,0-4.67-2.335L1.167,49.228A2.918,2.918,0,0,0,0,51.562V86.584A2.918,2.918,0,0,0,2.918,89.5H86.581A2.918,2.918,0,0,0,89.5,86.584V51.562C89.5,51.177,89.716,52.707,83.662,14.366Zm-.5,34.278H66.649l.922-5.837H82.244ZM81.322,36.97H68.492l.922-5.837H80.4ZM79.479,25.3H70.335l1.229-7.782H78.25ZM57.4,11.677A2.918,2.918,0,0,0,54.478,14.6a2.922,2.922,0,0,1-2.918,2.918H28.212a2.918,2.918,0,0,1,0-5.837H45.723a2.918,2.918,0,0,0,2.918-2.918A2.922,2.922,0,0,1,51.559,5.84H74.907a2.922,2.922,0,0,1,2.918,2.918v2.918ZM83.662,83.665H5.837V53.022L23.348,39.889V51.562a2.921,2.921,0,0,0,4.67,2.335L46.7,39.889V51.562a2.918,2.918,0,0,0,2.918,2.918H83.662Z" transform="translate(0 -0.003)"/></g></g><g transform="translate(59.342 60.318)"><path class="b" d="M354.067,345.044H342.393a2.918,2.918,0,0,0-2.918,2.918v11.674a2.918,2.918,0,0,0,2.918,2.918h11.674a2.918,2.918,0,0,0,2.918-2.918V347.962A2.918,2.918,0,0,0,354.067,345.044Zm-2.919,11.674h-5.837v-5.837h5.837Z" transform="translate(-339.475 -345.044)"/></g><g transform="translate(35.994 60.318)"><path class="b" d="M220.5,345.044H208.829a2.918,2.918,0,0,0-2.918,2.918v11.674a2.918,2.918,0,0,0,2.918,2.918H220.5a2.918,2.918,0,0,0,2.918-2.918V347.962A2.918,2.918,0,0,0,220.5,345.044Zm-2.918,11.674h-5.837v-5.837h5.837Z" transform="translate(-205.911 -345.044)"/></g><g transform="translate(12.647 60.318)"><path class="b" d="M86.94,345.044H75.266a2.918,2.918,0,0,0-2.918,2.918v11.674a2.918,2.918,0,0,0,2.918,2.918H86.94a2.918,2.918,0,0,0,2.918-2.918V347.962A2.918,2.918,0,0,0,86.94,345.044Zm-2.918,11.674H78.185v-5.837h5.837Z" transform="translate(-72.348 -345.044)"/></g></g></svg>