<svg xmlns="http://www.w3.org/2000/svg" viewBox="1018 1708 100 100"><defs><style>.a{fill:#fff;stroke:#f5f5f5;stroke-width:4px;}.b{fill:#c0a360;}.c{fill:#be9b47;}.d{stroke:none;}.e{fill:none;}</style></defs><g class="a" transform="translate(1018 1708)"><circle class="d" cx="50" cy="50" r="50"/><circle class="e" cx="50" cy="50" r="48"/></g><g transform="translate(1038 1728.356)"><path class="b" d="M51.062,21.561a30.525,30.525,0,0,0-43.121,0L0,29.5l8.138,8.138a30.525,30.525,0,0,0,43.122,0L59.2,29.7ZM49.845,36.225a28.525,28.525,0,0,1-40.293,0L2.828,29.5l6.527-6.527a28.525,28.525,0,0,1,40.293,0L56.372,29.7Z"/><path class="b" d="M28.572,21.57a7.008,7.008,0,0,0-7,7,1,1,0,0,0,2,0,5.006,5.006,0,0,1,5-5,1,1,0,0,0,0-2Z"/><path class="c" d="M29.572,16.57a13,13,0,1,0,13,13A13.015,13.015,0,0,0,29.572,16.57Zm0,24a11,11,0,1,1,11-11A11.013,11.013,0,0,1,29.572,40.57Z"/></g></svg>