<svg xmlns="http://www.w3.org/2000/svg" viewBox="357 4910 175 175"><defs><style>.a{fill:#be9b47;}.b,.d{fill:none;}.b{stroke:#c1a050;stroke-width:7px;}.c{stroke:none;}</style></defs><g transform="translate(379 4948)"><g transform="translate(0 0)"><path class="a" d="M119.11,36.552l-.074-2.644-2.566-.643A80.293,80.293,0,0,0,99.249,31.3c-12.941-.1-23.806,3.079-31.427,9.2l-1.493,1.2a26.926,26.926,0,0,0-4.788,37.01V91.795a29.692,29.692,0,0,0-3.34-2.854A22.276,22.276,0,0,0,32,73.234l-1.5.33c-18.606,4.1-28.96,26.163-29.392,27.1L0,103.067l2.014,1.715c.695.592,15.382,12.918,31.642,12.918a29.762,29.762,0,0,0,6.419-.684l1.5-.33a22.283,22.283,0,0,0,17.092-17.7A39.008,39.008,0,0,1,61.541,103v32.856h6.981V85.278A26.981,26.981,0,0,0,100.05,83.69l1.494-1.2h0C119.773,67.852,119.145,37.824,119.11,36.552ZM40.07,109.87l-1.5.33c-11.951,2.633-24.812-5.425-29.843-9.056C11.77,95.731,20.052,83.015,32,80.381l1.5-.33a15.275,15.275,0,0,1,14.564,4.631C36.537,82.968,26.169,90.8,20.532,95.058l4.209,5.57c4.922-3.719,14.082-10.641,22.928-8.934a15.1,15.1,0,0,1,4.286,1.545A15.289,15.289,0,0,1,40.07,109.87Zm57.1-32.822-1.494,1.2A19.94,19.94,0,0,1,68.693,76.39C71.258,61.27,88.524,56.924,97.926,54.558l-1.7-6.77c-5.2,1.308-13.059,3.285-20.044,7.492A30.087,30.087,0,0,0,63.995,68.152a19.984,19.984,0,0,1,6.7-21.013l1.493-1.2c7.857-6.309,18.649-7.663,26.46-7.663h.383a78.043,78.043,0,0,1,13.051,1.209,77.98,77.98,0,0,1-1.637,13C108.8,60.155,105.159,70.635,97.173,77.047Z" transform="translate(0 -31.297)"/></g></g><g class="b" transform="translate(357 4910)"><circle class="c" cx="87.5" cy="87.5" r="87.5"/><circle class="d" cx="87.5" cy="87.5" r="84"/></g></svg>