<svg xmlns="http://www.w3.org/2000/svg" viewBox="976 7942 51.639 51.639"><defs><style>.a{fill:#fff;}</style></defs><g transform="translate(850 7948)"><path class="a" d="M225.384,14.559v3.156a.949.949,0,0,1-.932.932h-3.084a.949.949,0,0,1-.932-.932V14.559a.949.949,0,0,1,.932-.932h3.084A.9.9,0,0,1,225.384,14.559ZM213.478,30.195a4.232,4.232,0,1,0-4.232-4.232A4.286,4.286,0,0,0,213.478,30.195Zm25.461-4.375A25.82,25.82,0,1,1,213.12,0,25.8,25.8,0,0,1,238.939,25.82Zm-10.9-4.16h-8.463a7.459,7.459,0,1,1-12.193,0h-8.463V34.713a5.755,5.755,0,0,0,5.738,5.738h17.572a5.755,5.755,0,0,0,5.738-5.738V21.66ZM213.478,31.7a5.755,5.755,0,0,0,5.738-5.738,5.9,5.9,0,0,0-1.936-4.3,7.072,7.072,0,0,0-1.434-.932,5.2,5.2,0,0,0-2.367-.5,6.34,6.34,0,0,0-2.367.5,6.152,6.152,0,0,0-1.434.932,5.649,5.649,0,0,0-1.936,4.3A5.755,5.755,0,0,0,213.478,31.7ZM228.038,17A5.755,5.755,0,0,0,222.3,11.26H206.593V18.5h-1.148V11.26h-.789V18.5h-1.148V11.4a4.043,4.043,0,0,0-.861.287V18.5h-1.219V12.336A5.837,5.837,0,0,0,198.991,17v3.8h9.18a7.446,7.446,0,0,1,10.615,0h9.252V17Z" transform="translate(-61.3 -6)"/></g></svg>