<svg xmlns="http://www.w3.org/2000/svg" viewBox="1058 7942 51.667 51.667"><defs><style>.a{fill:#fff;}</style></defs><g transform="translate(850 7948)"><path class="a" d="M25.833,0A25.833,25.833,0,1,0,51.667,25.833,25.817,25.817,0,0,0,25.833,0ZM18.944,38.319H13.275v-18.3h5.669Zm-2.87-20.738a3.373,3.373,0,1,1,3.373-3.373A3.369,3.369,0,0,1,16.074,17.581ZM40.185,38.319H34.516V28.7c0-2.655-1-4.09-3.086-4.09-2.3,0-3.444,1.507-3.444,4.09v9.616H22.532v-18.3h5.454v2.44a6.423,6.423,0,0,1,5.525-3.014c3.875,0,6.674,2.368,6.674,7.248Z" transform="translate(208 -6)"/></g></svg>