<svg xmlns="http://www.w3.org/2000/svg" viewBox="637 1708 100 100"><defs><style>.a{fill:#fff;stroke:#f5f5f5;stroke-width:4px;}.b{fill:#c0a360;}.c{stroke:none;}.d{fill:none;}</style></defs><g class="a" transform="translate(637 1708)"><circle class="c" cx="50" cy="50" r="50"/><circle class="d" cx="50" cy="50" r="48"/></g><g transform="translate(662 1732.948)"><g transform="translate(7.066 12.349)"><path class="b" d="M101.915,135.656a1.18,1.18,0,1,0-2.194.867,12.953,12.953,0,1,1-7.28-7.282,1.18,1.18,0,0,0,.872-2.192,15.295,15.295,0,1,0,8.6,8.607Z" transform="translate(-72.357 -125.973)"/></g><g transform="translate(0 5.281)"><path class="b" d="M43.9,69.814a1.18,1.18,0,0,0-2.268.649,20,20,0,1,1-13.72-13.727,1.18,1.18,0,1,0,.651-2.268A22.358,22.358,0,1,0,43.9,69.814Z" transform="translate(0 -53.603)"/></g><g transform="translate(14.133 19.415)"><path class="b" d="M161.184,205.854a1.18,1.18,0,1,0-2.35.21c.015.168.023.34.023.511a5.887,5.887,0,1,1-5.886-5.888c.181,0,.359.008.528.023a1.18,1.18,0,0,0,.217-2.349c-.241-.022-.491-.033-.744-.033a8.246,8.246,0,1,0,8.246,8.247C161.216,206.334,161.206,206.091,161.184,205.854Z" transform="translate(-144.724 -198.327)"/></g><g transform="translate(21.657 0.052)"><g transform="translate(0 0)"><path class="b" d="M249.93,7.983a2.353,2.353,0,0,0-2.18-1.457h-4.113V2.413A2.359,2.359,0,0,0,239.609.744l-6.873,6.873a3.514,3.514,0,0,0-1.036,2.5v6.675l-9.587,9.587a1.18,1.18,0,1,0,1.668,1.668l9.587-9.587h6.675a3.515,3.515,0,0,0,2.5-1.036l6.873-6.873A2.351,2.351,0,0,0,249.93,7.983ZM234.06,10.119a1.171,1.171,0,0,1,.345-.833l6.873-6.872v4.8l-7.218,7.218V10.119Zm6.818,5.639a1.187,1.187,0,0,1-.833.345h-4.316l7.218-7.218h4.8Z" transform="translate(-221.768 -0.052)"/></g></g></g></svg>