<?xml version="1.0" encoding="utf-8"?>
<!-- Generator: Adobe Illustrator 22.0.1, SVG Export Plug-In . SVG Version: 6.00 Build 0)  -->
<svg version="1.1" id="Camada_1" xmlns="http://www.w3.org/2000/svg" xmlns:xlink="http://www.w3.org/1999/xlink" x="0px" y="0px"
	 viewBox="0 0 146 102" style="enable-background:new 0 0 146 102;" xml:space="preserve">
<style type="text/css">
	.st0{fill:#BE9B47;}
</style>
<g id="Camada_x0020_1">
	<g id="_2039629433856">
		<polygon points="27.1,91.3 27.1,57.3 20.6,57.3 20.6,71.3 8,71.3 8,57.3 1.6,57.3 1.6,91.3 8,91.3 8,77 20.6,77 20.6,91.3 		"/>
		<path d="M46.4,91.3c6.2,0,9.3-3,9.3-7.8v-3.6c0-3.3-1.8-5.6-5-6.3c2.6-1.1,3.8-2.7,3.8-5.5v-3.5c0-4.6-2.6-7.3-9-7.3H32.1v34H46.4
			z M49.2,82.7c0,2.5-1.2,3.3-4.1,3.3h-6.6v-9.3h7.1c2.6,0,3.6,1.1,3.6,3.4V82.7z M48.1,68.4c0,2-0.9,3.2-3.4,3.2h-6.1v-8.9h6.2
			c2.3,0,3.4,0.9,3.4,2.8V68.4z"/>
		<path d="M79.4,82.1c0-6.8-0.5-8.3-9.6-10.5c-5.9-1.4-6-1.5-6-5.4c0-3,0.8-3.9,5.1-3.9c3,0,6.3,0.4,9.1,1l0.7-5.4
			c-3.4-0.8-6.9-1.1-9.9-1.1c-8.6,0-11.4,3.1-11.4,9.2c0,7.2,1.1,8.8,9.4,10.6c6.1,1.3,6.2,1.6,6.2,5.4c0,3.3-0.8,4.2-5.4,4.2
			c-3.4,0-6.4-0.6-9.6-1.6l-1.1,5.1c2.3,1.1,6.7,2,10.6,2C77.5,91.8,79.4,88.5,79.4,82.1z"/>
		<path d="M87.8,82.8c0-2.2,0.9-2.9,3.1-2.9c0.7,0,1.6,0.1,2.6,0.3l0.2-1.2c-0.8-0.2-1.9-0.4-2.8-0.4c-3.4,0-4.6,1.6-4.6,4.2v4.3
			c0,2.6,1.2,4.2,4.6,4.2c0.8,0,1.9-0.1,2.8-0.3l-0.2-1.2c-1,0.2-1.9,0.2-2.6,0.2c-2.3,0-3.1-0.7-3.1-2.8V82.8z M102.8,82.2
			c0-2.3-1.2-3.5-4.4-3.5c-1.2,0-2.8,0.2-3.7,0.5l0.2,1.2c1.1-0.2,2.4-0.4,3.6-0.4c2,0,2.9,0.6,2.9,2.2v2.4h-3.6
			c-2.4,0-3.6,0.8-3.6,3.4c0,2.2,1,3.4,3.1,3.4c1.6,0,2.9-0.5,4.1-1.2l0.1,0.9h1.2V82.2z M101.4,88.8c-1.1,0.8-2.5,1.2-3.7,1.2
			c-1.7,0-2-0.6-2-2.1c0-1.6,0.5-2.1,2.2-2.1h3.5V88.8z M96.1,77.4c1-0.5,1.9-1,2.7-1.5c0.8,0.5,1.6,1,2.7,1.5l0.5-1
			c-1.2-0.7-2.1-1.4-3.2-2.1c-1.2,0.8-2.2,1.5-3.2,2.1L96.1,77.4z M120.8,91.1v-9.7c0-1.7-0.7-2.7-2.6-2.7c-1.5,0-3.7,0.7-5.1,1.4
			c-0.3-0.8-1-1.4-2.3-1.4c-1.5,0-3.6,0.7-4.9,1.4l-0.1-1.1h-1.3v12.2h1.5v-9.7c1.5-0.8,3.7-1.4,4.7-1.4c0.8,0,1.3,0.3,1.3,1.2v9.8
			h1.5v-9.7c1.5-0.8,3.5-1.4,4.7-1.4c0.8,0,1.3,0.3,1.3,1.2v9.8H120.8z M131.5,82.2c0-2.1-1-3.5-3.5-3.5c-1.7,0-3,0.4-4,0.9v-5.8
			l-1.5,0.2v16.9c1.1,0.3,3,0.4,4.1,0.4c3.7,0,4.9-1.6,4.9-4.3V82.2z M124,81.1c1.1-0.6,2.3-1,3.8-1c1.6,0,2.2,0.7,2.2,2.1v4.9
			c0,1.8-0.6,2.9-3.2,2.9c-0.9,0-1.8-0.1-2.8-0.2V81.1z M134.3,91.1V78.9h-1.5v12.2H134.3z M134.3,76.6v-2.7h-1.5v2.7H134.3z
			 M145,86.9v-3.8c0-2.5-1.3-4.4-4.7-4.4s-4.7,1.9-4.7,4.4v3.8c0,2.5,1.3,4.4,4.7,4.4S145,89.4,145,86.9z M143.5,87
			c0,2-1,3.1-3.3,3.1c-2.3,0-3.3-1-3.3-3.1V83c0-2.1,1-3.1,3.3-3.1c2.3,0,3.3,1,3.3,3.1V87z"/>
	</g>
</g>
<polyline class="st0" points="86,57.4 86,13.4 130.2,13.4 130.2,27.9 100.8,27.9 100.8,57.4 86,57.4 "/>
<polyline class="st0" points="145,27.9 145,71.9 100.8,71.9 100.8,57.4 130.2,57.4 130.2,27.9 145,27.9 "/>
</svg>
