<?xml version="1.0" encoding="utf-8"?>
<!-- Generator: Adobe Illustrator 22.0.1, SVG Export Plug-In . SVG Version: 6.00 Build 0)  -->
<svg version="1.1" id="Layer_1" xmlns="http://www.w3.org/2000/svg" xmlns:xlink="http://www.w3.org/1999/xlink" x="0px" y="0px"
	 viewBox="0 0 182.8 50" style="enable-background:new 0 0 182.8 50;" xml:space="preserve">
<style type="text/css">
	.st0{fill:#BE9B47;}
</style>
<g id="_2039622442624">
	<g>
		<polygon points="74.8,41.1 74.8,9.5 68.8,9.5 68.8,22.5 57,22.5 57,9.5 51,9.5 51,41.1 57,41.1 57,27.8 68.8,27.8 68.8,41.1 		"/>
		<path d="M92.1,41.1c5.7,0,8.6-2.8,8.6-7.3v-3.4c0-3.1-1.7-5.2-4.6-5.9c2.4-1,3.5-2.5,3.5-5.1v-3.3c0-4.3-2.4-6.8-8.4-6.8H78.8
			v31.6H92.1z M94.7,33.1c0,2.3-1.1,3.1-3.9,3.1h-6.1v-8.6h6.6c2.4,0,3.3,1.1,3.3,3.2V33.1z M93.7,19.8c0,1.8-0.9,2.9-3.2,2.9h-5.7
			v-8.3h5.7c2.2,0,3.1,0.8,3.1,2.6V19.8z"/>
		<path d="M122.8,32.5c0-6.3-0.4-7.7-8.9-9.7c-5.5-1.3-5.6-1.4-5.6-5c0-2.8,0.7-3.6,4.8-3.6c2.8,0,5.8,0.4,8.5,0.9l0.7-5
			c-3.1-0.7-6.5-1-9.2-1c-8,0-10.6,2.8-10.6,8.6c0,6.7,1.1,8.2,8.7,9.9c5.7,1.2,5.8,1.5,5.8,5c0,3-0.7,3.9-5,3.9
			c-3.1,0-6-0.6-8.9-1.5l-1.1,4.7c2.1,1,6.3,1.9,9.9,1.9C121,41.6,122.8,38.5,122.8,32.5z"/>
	</g>
	<path d="M129.6,33.2c0-2,0.8-2.6,2.9-2.6c0.7,0,1.5,0.1,2.4,0.2l0.2-1.1c-0.8-0.2-1.8-0.3-2.6-0.3c-3.2,0-4.3,1.5-4.3,3.9v4
		c0,2.4,1.1,3.9,4.3,3.9c0.8,0,1.8-0.1,2.6-0.3l-0.2-1.1c-1,0.2-1.7,0.2-2.4,0.2c-2.1,0-2.9-0.6-2.9-2.6V33.2z M143.6,32.6
		c0-2.1-1.2-3.3-4.1-3.3c-1.2,0-2.6,0.2-3.5,0.4l0.2,1.1c1-0.2,2.2-0.4,3.3-0.4c1.9,0,2.7,0.5,2.7,2.1v2.2h-3.3
		c-2.2,0-3.3,0.7-3.3,3.1c0,2,0.9,3.2,2.9,3.2c1.5,0,2.7-0.4,3.8-1.1l0.1,0.9h1.2V32.6z M142.2,38.8c-1,0.7-2.3,1.2-3.5,1.2
		c-1.6,0-1.9-0.6-1.9-1.9c0-1.5,0.5-2,2-2h3.3V38.8z M137.3,28.2c1-0.5,1.7-1,2.5-1.5c0.8,0.5,1.5,0.9,2.5,1.5l0.5-0.9
		c-1.1-0.7-2-1.3-3-2c-1.1,0.7-2,1.4-3,2L137.3,28.2z M160.3,40.9v-9c0-1.6-0.6-2.6-2.4-2.6c-1.4,0-3.4,0.7-4.7,1.3
		c-0.3-0.8-1-1.3-2.2-1.3c-1.4,0-3.4,0.7-4.6,1.3l-0.1-1h-1.2v11.3h1.3v-9c1.4-0.7,3.4-1.3,4.3-1.3c0.8,0,1.2,0.3,1.2,1.1v9.2h1.3
		v-9c1.4-0.7,3.3-1.3,4.3-1.3c0.8,0,1.2,0.3,1.2,1.1v9.2H160.3z M170.2,32.7c0-2-1-3.3-3.2-3.3c-1.5,0-2.8,0.4-3.7,0.9v-5.4
		l-1.3,0.2v15.8c1,0.3,2.8,0.4,3.8,0.4c3.4,0,4.5-1.5,4.5-4V32.7z M163.3,31.6c1.1-0.6,2.2-1,3.5-1c1.5,0,2.1,0.6,2.1,2v4.6
		c0,1.7-0.6,2.7-3,2.7c-0.8,0-1.7-0.1-2.6-0.2V31.6z M172.9,40.9V29.6h-1.3v11.3H172.9z M172.9,27.4V25h-1.3v2.5H172.9z M182.8,37
		v-3.6c0-2.3-1.2-4.1-4.4-4.1c-3.2,0-4.4,1.8-4.4,4.1V37c0,2.3,1.2,4.1,4.4,4.1C181.6,41.1,182.8,39.3,182.8,37z M181.5,37.1
		c0,1.9-0.9,2.9-3,2.9c-2.1,0-3-0.9-3-2.9v-3.6c0-1.9,0.9-2.9,3-2.9c2.1,0,3,0.9,3,2.9V37.1z"/>
	<polyline class="st0" points="0,35.4 0,4.5 31,4.5 31,14.7 10.4,14.7 10.4,35.4 0,35.4 	"/>
	<polyline class="st0" points="41.4,14.7 41.4,45.6 10.4,45.6 10.4,35.4 31,35.4 31,14.7 41.4,14.7 	"/>
</g>
</svg>
